<svg id="svg" version="1.1" xmlns="http://www.w3.org/2000/svg" xmlns:xlink="http://www.w3.org/1999/xlink" width="400" height="400" viewBox="0, 0, 400,400"><g id="svgg"><path id="path0" d="M123.139 91.795 C 123.032 91.902,121.607 92.164,119.972 92.378 C 114.420 93.104,114.572 93.063,110.000 95.129 C 103.329 98.144,93.676 110.267,88.763 121.800 C 87.182 125.512,85.422 133.061,84.587 139.713 C 83.867 145.448,84.482 155.365,85.955 161.800 C 86.996 166.344,87.179 167.109,87.535 168.400 C 88.246 170.975,90.398 176.825,91.247 178.495 C 91.441 178.877,91.600 179.462,91.600 179.795 C 91.600 180.128,91.780 180.400,92.000 180.400 C 92.220 180.400,92.400 180.650,92.400 180.955 C 92.400 181.260,93.452 183.555,94.738 186.055 C 96.969 190.392,97.562 191.484,99.924 195.600 C 101.059 197.578,106.050 205.004,109.198 209.400 C 110.301 210.940,112.080 213.460,113.152 215.000 C 114.768 217.322,120.247 224.534,122.116 226.800 C 122.388 227.130,123.239 228.203,124.006 229.184 C 124.772 230.166,125.760 231.353,126.200 231.823 C 126.640 232.293,127.450 233.201,128.000 233.841 C 137.637 245.051,144.698 252.303,155.421 262.000 C 158.429 264.721,167.535 272.064,169.800 273.595 C 170.900 274.339,171.890 275.058,172.000 275.193 C 172.110 275.328,172.830 275.875,173.600 276.408 C 174.370 276.942,175.318 277.669,175.707 278.025 C 176.095 278.381,176.905 278.921,177.507 279.226 C 178.108 279.531,179.860 280.610,181.400 281.624 C 186.935 285.269,195.063 289.741,201.400 292.628 C 203.160 293.429,205.500 294.499,206.600 295.005 C 211.378 297.200,231.432 304.659,236.200 306.014 C 236.860 306.201,238.075 306.545,238.900 306.777 C 240.422 307.206,241.992 307.654,244.700 308.430 C 246.114 308.836,246.816 308.999,251.500 310.010 C 260.134 311.875,270.260 312.019,276.900 310.372 C 281.149 309.318,283.239 308.703,285.100 307.960 C 285.595 307.762,286.405 307.449,286.900 307.264 C 296.353 303.737,306.489 296.624,312.100 289.581 C 318.573 281.457,322.684 257.602,318.315 253.521 C 317.162 252.443,295.851 241.600,294.887 241.600 C 294.619 241.600,294.400 241.420,294.400 241.200 C 294.400 240.980,294.040 240.800,293.600 240.800 C 293.160 240.800,292.800 240.620,292.800 240.400 C 292.800 240.180,292.615 240.000,292.390 240.000 C 292.164 240.000,290.229 239.166,288.090 238.147 C 276.811 232.774,274.316 231.600,274.177 231.600 C 274.093 231.600,272.983 231.122,271.712 230.539 C 263.232 226.646,258.108 228.178,252.785 236.200 C 250.602 239.490,244.864 247.236,243.114 249.255 C 242.611 249.835,241.660 251.003,241.000 251.850 C 237.648 256.155,235.185 257.407,230.125 257.380 C 227.786 257.368,226.222 257.182,225.920 256.880 C 225.656 256.616,225.114 256.400,224.715 256.400 C 224.316 256.400,223.677 256.235,223.295 256.033 C 222.270 255.491,218.839 254.000,218.617 254.000 C 217.545 254.000,203.127 246.332,198.918 243.523 C 197.333 242.465,195.863 241.600,195.651 241.600 C 195.440 241.600,195.207 241.465,195.133 241.300 C 195.060 241.135,193.830 240.199,192.400 239.221 C 190.970 238.243,189.710 237.342,189.600 237.219 C 189.490 237.096,188.680 236.468,187.800 235.823 C 180.763 230.664,168.486 219.086,163.994 213.370 C 163.661 212.947,162.761 211.790,161.994 210.800 C 161.228 209.810,160.504 208.910,160.386 208.800 C 158.476 207.019,150.205 195.416,146.699 189.600 C 143.211 183.813,142.853 181.791,144.720 178.413 C 145.854 176.360,146.922 175.053,153.400 167.786 C 159.662 160.762,160.071 160.230,162.069 156.532 C 163.477 153.925,163.836 149.459,162.811 147.294 C 162.526 146.692,162.137 145.795,161.946 145.300 C 161.756 144.805,161.443 143.995,161.251 143.500 C 161.059 143.005,160.496 141.700,160.000 140.600 C 159.504 139.500,158.960 138.240,158.790 137.800 C 158.620 137.360,158.207 136.370,157.872 135.600 C 157.537 134.830,156.874 133.210,156.400 132.000 C 155.926 130.790,155.290 129.260,154.988 128.600 C 154.686 127.940,153.077 124.070,151.413 120.000 C 149.749 115.930,148.210 112.195,147.994 111.700 C 147.777 111.205,147.438 110.395,147.241 109.900 C 144.798 103.780,141.892 97.723,140.429 95.703 C 138.727 93.354,136.681 92.595,130.600 92.055 C 124.912 91.551,123.434 91.499,123.139 91.795 " stroke="none" fill="#fbfbfb" fill-rule="evenodd"></path><path id="path1" d="M178.700 0.273 C 176.555 0.359,174.800 0.602,174.800 0.814 C 174.800 1.027,173.540 1.200,172.000 1.200 C 170.400 1.200,169.200 1.371,169.200 1.600 C 169.200 1.822,168.133 2.000,166.800 2.000 C 165.467 2.000,164.400 2.178,164.400 2.400 C 164.400 2.620,163.410 2.800,162.200 2.800 C 160.990 2.800,160.000 2.980,160.000 3.200 C 160.000 3.420,159.280 3.600,158.400 3.600 C 157.520 3.600,156.800 3.780,156.800 4.000 C 156.800 4.220,156.001 4.400,155.024 4.400 C 154.047 4.400,153.136 4.580,153.000 4.800 C 152.864 5.020,152.043 5.200,151.176 5.200 C 150.309 5.200,149.600 5.380,149.600 5.600 C 149.600 5.820,148.970 6.000,148.200 6.000 C 147.430 6.000,146.800 6.180,146.800 6.400 C 146.800 6.620,146.170 6.800,145.400 6.800 C 144.630 6.800,144.000 6.960,144.000 7.155 C 144.000 7.350,143.505 7.609,142.900 7.730 C 140.437 8.226,139.370 8.476,138.800 8.694 C 138.470 8.820,138.020 8.942,137.800 8.965 C 136.957 9.054,132.582 10.542,132.220 10.863 C 132.011 11.048,131.426 11.200,130.920 11.200 C 130.414 11.200,130.000 11.380,130.000 11.600 C 130.000 11.820,129.645 12.000,129.212 12.000 C 128.779 12.000,127.783 12.360,127.000 12.800 C 126.217 13.240,125.221 13.600,124.788 13.600 C 124.355 13.600,124.000 13.780,124.000 14.000 C 124.000 14.220,123.651 14.400,123.224 14.400 C 122.797 14.400,122.336 14.580,122.200 14.800 C 122.064 15.020,121.513 15.200,120.976 15.200 C 120.439 15.200,120.000 15.380,120.000 15.600 C 120.000 15.820,119.640 16.000,119.200 16.000 C 118.760 16.000,118.400 16.180,118.400 16.400 C 118.400 16.620,118.040 16.800,117.600 16.800 C 117.160 16.800,116.800 16.980,116.800 17.200 C 116.800 17.420,116.440 17.600,116.000 17.600 C 115.560 17.600,115.200 17.780,115.200 18.000 C 115.200 18.220,114.857 18.400,114.438 18.400 C 113.622 18.400,110.288 20.001,110.067 20.500 C 109.993 20.665,109.603 20.800,109.200 20.800 C 108.797 20.800,108.407 20.935,108.333 21.100 C 108.166 21.476,106.036 22.775,105.100 23.071 C 104.715 23.193,104.400 23.452,104.400 23.647 C 104.400 23.841,104.040 24.000,103.600 24.000 C 103.160 24.000,102.800 24.180,102.800 24.400 C 102.800 24.620,102.558 24.800,102.261 24.800 C 101.701 24.800,99.149 25.960,98.800 26.374 C 98.690 26.504,97.745 27.042,96.700 27.568 C 95.655 28.095,94.800 28.634,94.800 28.765 C 94.800 28.897,94.294 29.229,93.675 29.503 C 93.056 29.776,92.164 30.360,91.692 30.800 C 91.220 31.240,90.596 31.600,90.305 31.600 C 90.014 31.600,89.517 31.960,89.200 32.400 C 88.883 32.840,88.343 33.200,88.000 33.200 C 87.657 33.200,87.117 33.560,86.800 34.000 C 86.483 34.440,86.020 34.800,85.771 34.800 C 85.522 34.800,84.754 35.340,84.063 36.000 C 83.372 36.660,82.575 37.200,82.292 37.200 C 82.009 37.200,81.517 37.560,81.200 38.000 C 80.883 38.440,80.415 38.800,80.160 38.800 C 79.905 38.800,78.955 39.520,78.048 40.400 C 77.141 41.280,76.262 42.000,76.095 42.000 C 75.928 42.000,75.344 42.410,74.796 42.911 C 74.248 43.413,73.170 44.262,72.400 44.798 C 71.630 45.335,70.370 46.416,69.600 47.200 C 68.830 47.984,67.570 49.067,66.800 49.606 C 66.030 50.145,63.820 52.209,61.888 54.193 C 57.658 58.537,58.537 57.658,54.193 61.888 C 52.209 63.820,50.145 66.030,49.606 66.800 C 49.067 67.570,47.984 68.830,47.200 69.600 C 46.416 70.370,45.335 71.630,44.798 72.400 C 44.262 73.170,43.413 74.248,42.911 74.796 C 42.410 75.344,42.000 75.946,42.000 76.135 C 42.000 76.324,41.460 76.983,40.800 77.600 C 40.140 78.217,39.600 78.919,39.600 79.160 C 39.600 79.402,39.420 79.600,39.200 79.600 C 38.980 79.600,38.800 79.830,38.800 80.112 C 38.800 80.393,38.440 80.883,38.000 81.200 C 37.560 81.517,37.200 82.009,37.200 82.292 C 37.200 82.575,36.660 83.372,36.000 84.063 C 35.340 84.754,34.800 85.522,34.800 85.771 C 34.800 86.020,34.440 86.483,34.000 86.800 C 33.560 87.117,33.200 87.657,33.200 88.000 C 33.200 88.343,32.840 88.883,32.400 89.200 C 31.960 89.517,31.600 90.014,31.600 90.305 C 31.600 90.596,31.240 91.220,30.800 91.692 C 30.360 92.164,29.776 93.056,29.503 93.675 C 29.229 94.294,28.897 94.800,28.765 94.800 C 28.634 94.800,28.095 95.655,27.568 96.700 C 27.042 97.745,26.504 98.690,26.374 98.800 C 25.960 99.149,24.800 101.701,24.800 102.261 C 24.800 102.558,24.620 102.800,24.400 102.800 C 24.180 102.800,24.000 103.160,24.000 103.600 C 24.000 104.040,23.820 104.400,23.600 104.400 C 23.380 104.400,23.200 104.760,23.200 105.200 C 23.200 105.640,23.065 106.003,22.900 106.006 C 22.735 106.010,22.160 106.910,21.621 108.006 C 21.083 109.103,20.498 110.000,20.321 110.000 C 20.145 110.000,20.000 110.360,20.000 110.800 C 20.000 111.240,19.820 111.600,19.600 111.600 C 19.380 111.600,19.200 111.960,19.200 112.400 C 19.200 112.840,19.020 113.200,18.800 113.200 C 18.580 113.200,18.400 113.650,18.400 114.200 C 18.400 114.750,18.220 115.200,18.000 115.200 C 17.780 115.200,17.600 115.560,17.600 116.000 C 17.600 116.440,17.420 116.800,17.200 116.800 C 16.980 116.800,16.800 117.160,16.800 117.600 C 16.800 118.040,16.620 118.400,16.400 118.400 C 16.180 118.400,16.000 118.760,16.000 119.200 C 16.000 119.640,15.853 120.000,15.672 120.000 C 15.492 120.000,15.100 120.900,14.800 122.000 C 14.500 123.100,14.108 124.000,13.928 124.000 C 13.747 124.000,13.600 124.355,13.600 124.788 C 13.600 125.221,13.240 126.217,12.800 127.000 C 12.360 127.783,12.000 128.779,12.000 129.212 C 12.000 129.645,11.820 130.000,11.600 130.000 C 11.380 130.000,11.200 130.362,11.200 130.805 C 11.200 131.248,11.024 131.923,10.809 132.305 C 10.062 133.632,8.400 139.224,8.400 140.408 C 8.400 141.064,8.220 141.600,8.000 141.600 C 7.780 141.600,7.600 142.140,7.600 142.800 C 7.600 143.460,7.420 144.000,7.200 144.000 C 6.980 144.000,6.800 144.619,6.800 145.376 C 6.800 146.133,6.620 146.864,6.400 147.000 C 6.180 147.136,6.000 147.777,6.000 148.424 C 6.000 149.071,5.820 149.600,5.600 149.600 C 5.380 149.600,5.200 150.309,5.200 151.176 C 5.200 152.043,5.020 152.864,4.800 153.000 C 4.580 153.136,4.400 154.047,4.400 155.024 C 4.400 156.001,4.220 156.800,4.000 156.800 C 3.780 156.800,3.600 157.509,3.600 158.376 C 3.600 159.243,3.420 160.064,3.200 160.200 C 2.980 160.336,2.800 161.337,2.800 162.424 C 2.800 163.511,2.620 164.400,2.400 164.400 C 2.178 164.400,2.000 165.467,2.000 166.800 C 2.000 168.133,1.822 169.200,1.600 169.200 C 1.373 169.200,1.200 170.373,1.200 171.920 C 1.200 173.563,1.002 174.838,0.700 175.140 C -0.030 175.870,-0.030 223.656,0.700 223.900 C 1.043 224.014,1.200 225.051,1.200 227.210 C 1.200 228.938,1.380 230.464,1.600 230.600 C 1.820 230.736,2.000 231.816,2.000 233.000 C 2.000 234.184,2.180 235.264,2.400 235.400 C 2.620 235.536,2.800 236.447,2.800 237.424 C 2.800 238.401,2.980 239.200,3.200 239.200 C 3.420 239.200,3.600 240.100,3.600 241.200 C 3.600 242.300,3.780 243.200,4.000 243.200 C 4.220 243.200,4.400 243.999,4.400 244.976 C 4.400 245.953,4.580 246.864,4.800 247.000 C 5.020 247.136,5.200 247.867,5.200 248.624 C 5.200 249.381,5.380 250.000,5.600 250.000 C 5.820 250.000,6.000 250.630,6.000 251.400 C 6.000 252.170,6.180 252.800,6.400 252.800 C 6.620 252.800,6.800 253.329,6.800 253.976 C 6.800 254.623,6.980 255.264,7.200 255.400 C 7.420 255.536,7.600 256.177,7.600 256.824 C 7.600 257.471,7.756 258.000,7.947 258.000 C 8.138 258.000,8.413 258.765,8.558 259.700 C 8.703 260.635,8.877 261.762,8.945 262.204 C 9.013 262.646,9.285 263.411,9.549 263.904 C 9.812 264.397,9.896 264.800,9.734 264.800 C 9.572 264.800,9.656 265.016,9.920 265.280 C 10.184 265.544,10.400 266.174,10.400 266.680 C 10.400 267.186,10.580 267.600,10.800 267.600 C 11.020 267.600,11.200 267.962,11.200 268.405 C 11.200 268.848,11.359 269.523,11.553 269.905 C 11.748 270.287,12.129 271.140,12.400 271.800 C 12.671 272.460,13.052 273.313,13.247 273.695 C 13.441 274.077,13.600 274.752,13.600 275.195 C 13.600 275.638,13.780 276.000,14.000 276.000 C 14.220 276.000,14.400 276.272,14.400 276.605 C 14.400 277.193,14.567 277.618,15.538 279.495 C 15.792 279.987,16.000 280.662,16.000 280.995 C 16.000 281.328,16.180 281.600,16.400 281.600 C 16.620 281.600,16.800 281.960,16.800 282.400 C 16.800 282.840,16.980 283.200,17.200 283.200 C 17.420 283.200,17.600 283.560,17.600 284.000 C 17.600 284.440,17.780 284.800,18.000 284.800 C 18.220 284.800,18.400 285.160,18.400 285.600 C 18.400 286.040,18.580 286.400,18.800 286.400 C 19.020 286.400,19.200 286.760,19.200 287.200 C 19.200 287.640,19.380 288.000,19.600 288.000 C 19.820 288.000,20.000 288.360,20.000 288.800 C 20.000 289.240,20.180 289.600,20.400 289.600 C 20.620 289.600,20.800 289.968,20.800 290.417 C 20.800 290.866,21.160 291.620,21.600 292.092 C 22.040 292.564,22.400 293.187,22.400 293.475 C 22.400 293.764,22.580 294.000,22.800 294.000 C 23.020 294.000,23.200 294.360,23.200 294.800 C 23.200 295.240,23.380 295.600,23.600 295.600 C 23.820 295.600,24.000 295.960,24.000 296.400 C 24.000 296.840,24.180 297.200,24.400 297.200 C 24.620 297.200,24.800 297.470,24.800 297.800 C 24.800 298.130,25.145 298.745,25.567 299.167 C 25.988 299.588,26.252 300.015,26.152 300.115 C 25.923 300.344,28.417 304.953,28.867 305.133 C 29.050 305.207,29.200 305.494,29.200 305.771 C 29.200 306.049,29.560 306.602,30.000 307.000 C 30.440 307.398,30.800 307.926,30.800 308.174 C 30.800 308.421,31.160 308.883,31.600 309.200 C 32.040 309.517,32.400 310.057,32.400 310.400 C 32.400 310.743,32.760 311.283,33.200 311.600 C 33.640 311.917,34.000 312.457,34.000 312.800 C 34.000 313.143,34.360 313.683,34.800 314.000 C 35.240 314.317,35.600 314.857,35.600 315.200 C 35.600 315.543,35.960 316.083,36.400 316.400 C 37.226 316.996,37.507 318.400,36.800 318.400 C 36.580 318.400,36.400 318.940,36.400 319.600 C 36.400 320.260,36.220 320.800,36.000 320.800 C 35.780 320.800,35.600 321.340,35.600 322.000 C 35.600 322.660,35.420 323.200,35.200 323.200 C 34.980 323.200,34.800 323.740,34.800 324.400 C 34.800 325.060,34.620 325.600,34.400 325.600 C 34.180 325.600,34.000 326.050,34.000 326.600 C 34.000 327.150,33.820 327.600,33.600 327.600 C 33.380 327.600,33.200 328.140,33.200 328.800 C 33.200 329.460,33.020 330.000,32.800 330.000 C 32.580 330.000,32.400 330.540,32.400 331.200 C 32.400 331.860,32.220 332.400,32.000 332.400 C 31.780 332.400,31.600 332.940,31.600 333.600 C 31.600 334.260,31.420 334.800,31.200 334.800 C 30.980 334.800,30.800 335.340,30.800 336.000 C 30.800 336.660,30.620 337.200,30.400 337.200 C 30.180 337.200,30.000 337.740,30.000 338.400 C 30.000 339.060,29.820 339.600,29.600 339.600 C 29.380 339.600,29.200 340.140,29.200 340.800 C 29.200 341.460,29.020 342.000,28.800 342.000 C 28.580 342.000,28.400 342.439,28.400 342.976 C 28.400 343.513,28.220 344.064,28.000 344.200 C 27.780 344.336,27.600 344.876,27.600 345.400 C 27.600 345.924,27.420 346.464,27.200 346.600 C 26.980 346.736,26.800 347.276,26.800 347.800 C 26.800 348.324,26.611 348.869,26.381 349.012 C 26.150 349.154,26.007 349.570,26.063 349.935 C 26.118 350.301,25.933 351.019,25.651 351.531 C 25.369 352.043,25.237 352.718,25.357 353.031 C 25.477 353.344,25.401 353.600,25.187 353.600 C 24.974 353.600,24.800 354.140,24.800 354.800 C 24.800 355.460,24.620 356.000,24.400 356.000 C 24.180 356.000,24.000 356.540,24.000 357.200 C 24.000 357.860,23.820 358.400,23.600 358.400 C 23.380 358.400,23.200 358.850,23.200 359.400 C 23.200 359.950,23.020 360.400,22.800 360.400 C 22.580 360.400,22.400 360.940,22.400 361.600 C 22.400 362.260,22.220 362.800,22.000 362.800 C 21.780 362.800,21.600 363.340,21.600 364.000 C 21.600 364.660,21.420 365.200,21.200 365.200 C 20.980 365.200,20.800 365.740,20.800 366.400 C 20.800 367.060,20.620 367.600,20.400 367.600 C 20.180 367.600,20.000 368.140,20.000 368.800 C 20.000 369.460,19.820 370.000,19.600 370.000 C 19.380 370.000,19.200 370.439,19.200 370.976 C 19.200 371.513,19.020 372.064,18.800 372.200 C 18.580 372.336,18.400 372.876,18.400 373.400 C 18.400 373.924,18.220 374.464,18.000 374.600 C 17.780 374.736,17.600 375.387,17.600 376.047 C 17.600 376.745,17.433 377.144,17.200 377.000 C 16.967 376.856,16.800 377.263,16.800 377.976 C 16.800 378.649,16.620 379.200,16.400 379.200 C 16.180 379.200,16.000 379.639,16.000 380.176 C 16.000 380.713,15.820 381.264,15.600 381.400 C 15.380 381.536,15.200 381.999,15.200 382.429 C 15.200 382.859,15.024 383.523,14.809 383.905 C 12.866 387.357,12.030 392.400,13.400 392.400 C 13.950 392.400,14.400 392.220,14.400 392.000 C 14.400 391.780,14.829 391.600,15.354 391.600 C 16.378 391.600,20.153 390.560,21.295 389.963 C 21.677 389.763,22.341 389.600,22.771 389.600 C 23.201 389.600,23.664 389.420,23.800 389.200 C 23.936 388.980,24.487 388.800,25.024 388.800 C 25.561 388.800,26.000 388.620,26.000 388.400 C 26.000 388.180,26.540 388.000,27.200 388.000 C 27.860 388.000,28.400 387.820,28.400 387.600 C 28.400 387.380,28.852 387.200,29.405 387.200 C 29.958 387.200,30.723 387.038,31.105 386.839 C 31.487 386.640,32.610 386.263,33.600 386.000 C 34.590 385.737,35.713 385.360,36.095 385.161 C 36.477 384.962,37.141 384.800,37.571 384.800 C 38.001 384.800,38.464 384.620,38.600 384.400 C 38.736 384.180,39.287 384.000,39.824 384.000 C 40.361 384.000,40.800 383.820,40.800 383.600 C 40.800 383.380,41.340 383.200,42.000 383.200 C 42.660 383.200,43.200 383.020,43.200 382.800 C 43.200 382.580,43.740 382.400,44.400 382.400 C 45.060 382.400,45.600 382.220,45.600 382.000 C 45.600 381.780,46.140 381.600,46.800 381.600 C 47.460 381.600,48.000 381.420,48.000 381.200 C 48.000 380.980,48.529 380.800,49.176 380.800 C 49.823 380.800,50.464 380.620,50.600 380.400 C 50.736 380.180,51.366 380.000,52.000 380.000 C 52.634 380.000,53.264 379.820,53.400 379.600 C 53.536 379.380,54.076 379.200,54.600 379.200 C 55.124 379.200,55.664 379.020,55.800 378.800 C 55.936 378.580,56.487 378.400,57.024 378.400 C 57.561 378.400,58.000 378.220,58.000 378.000 C 58.000 377.780,58.540 377.600,59.200 377.600 C 59.860 377.600,60.400 377.420,60.400 377.200 C 60.400 376.980,60.940 376.800,61.600 376.800 C 62.260 376.800,62.800 376.620,62.800 376.400 C 62.800 376.180,63.340 376.000,64.000 376.000 C 64.660 376.000,65.200 375.844,65.200 375.654 C 65.200 375.464,66.029 375.195,67.042 375.056 C 68.875 374.805,73.571 373.428,74.895 372.754 C 75.277 372.559,76.042 372.400,76.595 372.400 C 77.148 372.400,77.600 372.220,77.600 372.000 C 77.600 371.780,78.140 371.600,78.800 371.600 C 79.460 371.600,80.000 371.420,80.000 371.200 C 80.000 370.980,80.540 370.800,81.200 370.800 C 81.860 370.800,82.400 370.620,82.400 370.400 C 82.400 370.180,82.940 370.000,83.600 370.000 C 84.260 370.000,84.800 369.820,84.800 369.600 C 84.800 369.380,85.340 369.200,86.000 369.200 C 86.660 369.200,87.200 369.020,87.200 368.800 C 87.200 368.580,88.100 368.400,89.200 368.400 C 90.300 368.400,91.200 368.580,91.200 368.800 C 91.200 369.020,91.436 369.200,91.725 369.200 C 92.013 369.200,92.598 369.515,93.025 369.900 C 93.451 370.285,94.340 370.870,95.000 371.200 C 95.660 371.530,96.549 372.115,96.975 372.500 C 97.402 372.885,97.906 373.200,98.097 373.200 C 98.287 373.200,99.105 373.650,99.914 374.200 C 100.723 374.750,101.704 375.200,102.093 375.200 C 102.482 375.200,102.800 375.380,102.800 375.600 C 102.800 375.820,103.160 376.000,103.600 376.000 C 104.040 376.000,104.400 376.180,104.400 376.400 C 104.400 376.620,104.760 376.800,105.200 376.800 C 105.640 376.800,106.000 376.980,106.000 377.200 C 106.000 377.420,106.360 377.600,106.800 377.600 C 107.240 377.600,107.600 377.736,107.600 377.902 C 107.600 378.069,108.185 378.459,108.900 378.770 C 109.615 379.081,110.290 379.440,110.400 379.568 C 110.790 380.020,114.084 381.600,114.638 381.600 C 114.947 381.600,115.200 381.780,115.200 382.000 C 115.200 382.220,115.560 382.400,116.000 382.400 C 116.440 382.400,116.800 382.580,116.800 382.800 C 116.800 383.020,117.160 383.200,117.600 383.200 C 118.040 383.200,118.400 383.380,118.400 383.600 C 118.400 383.820,118.839 384.000,119.376 384.000 C 119.913 384.000,120.464 384.180,120.600 384.400 C 120.736 384.620,121.197 384.800,121.624 384.800 C 122.051 384.800,122.400 384.980,122.400 385.200 C 122.400 385.420,122.760 385.600,123.200 385.600 C 123.640 385.600,124.000 385.780,124.000 386.000 C 124.000 386.220,124.551 386.400,125.224 386.400 C 125.937 386.400,126.344 386.567,126.200 386.800 C 126.064 387.020,126.313 387.200,126.753 387.200 C 127.193 387.200,127.664 387.380,127.800 387.600 C 127.936 387.820,128.487 388.000,129.024 388.000 C 129.561 388.000,130.000 388.180,130.000 388.400 C 130.000 388.620,130.540 388.800,131.200 388.800 C 131.860 388.800,132.400 388.980,132.400 389.200 C 132.400 389.420,132.940 389.600,133.600 389.600 C 134.260 389.600,134.800 389.780,134.800 390.000 C 134.800 390.220,135.340 390.400,136.000 390.400 C 136.660 390.400,137.200 390.574,137.200 390.786 C 137.200 390.999,138.100 391.292,139.200 391.438 C 140.300 391.584,141.200 391.860,141.200 392.052 C 141.200 392.243,141.819 392.400,142.576 392.400 C 143.333 392.400,144.064 392.580,144.200 392.800 C 144.336 393.020,145.067 393.200,145.824 393.200 C 146.581 393.200,147.200 393.380,147.200 393.600 C 147.200 393.820,147.920 394.000,148.800 394.000 C 149.680 394.000,150.400 394.180,150.400 394.400 C 150.400 394.620,150.929 394.800,151.576 394.800 C 152.223 394.800,152.864 394.980,153.000 395.200 C 153.136 395.420,154.047 395.600,155.024 395.600 C 156.001 395.600,156.800 395.780,156.800 396.000 C 156.800 396.220,157.599 396.400,158.576 396.400 C 159.553 396.400,160.464 396.580,160.600 396.800 C 160.736 397.020,161.737 397.200,162.824 397.200 C 163.911 397.200,164.800 397.380,164.800 397.600 C 164.800 397.820,165.790 398.000,167.000 398.000 C 168.210 398.000,169.200 398.180,169.200 398.400 C 169.200 398.633,170.522 398.800,172.367 398.800 C 174.544 398.800,175.585 398.956,175.700 399.300 C 175.944 400.032,224.856 400.032,225.100 399.300 C 225.212 398.964,226.176 398.800,228.033 398.800 C 229.611 398.800,230.800 398.628,230.800 398.400 C 230.800 398.178,231.867 398.000,233.200 398.000 C 234.533 398.000,235.600 397.822,235.600 397.600 C 235.600 397.380,236.590 397.200,237.800 397.200 C 239.010 397.200,240.000 397.020,240.000 396.800 C 240.000 396.580,240.720 396.400,241.600 396.400 C 242.480 396.400,243.200 396.220,243.200 396.000 C 243.200 395.780,243.999 395.600,244.976 395.600 C 245.953 395.600,246.864 395.420,247.000 395.200 C 247.136 394.980,247.957 394.800,248.824 394.800 C 249.691 394.800,250.400 394.620,250.400 394.400 C 250.400 394.180,251.030 394.000,251.800 394.000 C 252.570 394.000,253.200 393.820,253.200 393.600 C 253.200 393.380,253.830 393.200,254.600 393.200 C 255.370 393.200,256.000 393.020,256.000 392.800 C 256.000 392.580,256.529 392.400,257.176 392.400 C 257.823 392.400,258.464 392.220,258.600 392.000 C 258.736 391.780,259.283 391.600,259.815 391.600 C 260.826 391.600,266.492 389.868,267.695 389.191 C 268.077 388.976,268.752 388.800,269.195 388.800 C 269.638 388.800,270.000 388.620,270.000 388.400 C 270.000 388.180,270.355 388.000,270.788 388.000 C 271.221 388.000,272.217 387.640,273.000 387.200 C 273.783 386.760,274.779 386.400,275.212 386.400 C 275.645 386.400,276.000 386.220,276.000 386.000 C 276.000 385.780,276.349 385.600,276.776 385.600 C 277.203 385.600,277.664 385.420,277.800 385.200 C 277.936 384.980,278.487 384.800,279.024 384.800 C 279.561 384.800,280.000 384.620,280.000 384.400 C 280.000 384.180,280.360 384.000,280.800 384.000 C 281.240 384.000,281.600 383.820,281.600 383.600 C 281.600 383.380,281.960 383.200,282.400 383.200 C 282.840 383.200,283.200 383.020,283.200 382.800 C 283.200 382.580,283.560 382.400,284.000 382.400 C 284.440 382.400,284.800 382.220,284.800 382.000 C 284.800 381.780,285.143 381.600,285.562 381.600 C 286.378 381.600,289.712 379.999,289.933 379.500 C 290.007 379.335,290.412 379.200,290.833 379.200 C 291.255 379.200,291.600 379.041,291.600 378.847 C 291.600 378.652,291.915 378.393,292.300 378.271 C 293.236 377.975,295.366 376.676,295.533 376.300 C 295.607 376.135,296.012 376.000,296.433 376.000 C 296.855 376.000,297.200 375.820,297.200 375.600 C 297.200 375.380,297.479 375.200,297.820 375.200 C 298.447 375.200,300.832 374.099,301.200 373.639 C 301.310 373.502,302.255 372.958,303.300 372.432 C 304.345 371.905,305.200 371.366,305.200 371.235 C 305.200 371.103,305.706 370.771,306.325 370.497 C 306.944 370.224,307.836 369.640,308.308 369.200 C 308.780 368.760,309.404 368.400,309.695 368.400 C 309.986 368.400,310.483 368.040,310.800 367.600 C 311.117 367.160,311.657 366.800,312.000 366.800 C 312.343 366.800,312.883 366.440,313.200 366.000 C 313.517 365.560,313.980 365.200,314.229 365.200 C 314.478 365.200,315.246 364.660,315.937 364.000 C 316.628 363.340,317.425 362.800,317.708 362.800 C 317.991 362.800,318.483 362.440,318.800 362.000 C 319.117 361.560,319.607 361.200,319.888 361.200 C 320.170 361.200,320.400 361.020,320.400 360.800 C 320.400 360.580,320.588 360.400,320.818 360.400 C 321.048 360.400,321.686 359.950,322.236 359.400 C 322.786 358.850,323.363 358.399,323.518 358.398 C 323.673 358.397,324.340 357.896,325.000 357.285 C 325.660 356.674,326.830 355.735,327.600 355.198 C 328.370 354.661,329.843 353.362,330.874 352.311 C 331.905 351.260,332.930 350.400,333.152 350.400 C 333.374 350.400,335.320 348.610,337.478 346.421 C 342.241 341.590,341.590 342.241,346.421 337.478 C 348.610 335.320,350.400 333.374,350.400 333.152 C 350.400 332.930,351.260 331.905,352.311 330.874 C 353.362 329.843,354.661 328.370,355.198 327.600 C 355.735 326.830,356.674 325.660,357.285 325.000 C 357.896 324.340,358.397 323.673,358.398 323.518 C 358.399 323.363,358.850 322.786,359.400 322.236 C 359.950 321.686,360.400 321.048,360.400 320.818 C 360.400 320.588,360.580 320.400,360.800 320.400 C 361.020 320.400,361.200 320.170,361.200 319.888 C 361.200 319.607,361.560 319.117,362.000 318.800 C 362.440 318.483,362.800 317.991,362.800 317.708 C 362.800 317.425,363.340 316.628,364.000 315.937 C 364.660 315.246,365.200 314.478,365.200 314.229 C 365.200 313.980,365.560 313.517,366.000 313.200 C 366.440 312.883,366.800 312.343,366.800 312.000 C 366.800 311.657,367.160 311.117,367.600 310.800 C 368.040 310.483,368.400 309.986,368.400 309.695 C 368.400 309.404,368.760 308.780,369.200 308.308 C 369.640 307.836,370.224 306.944,370.497 306.325 C 370.771 305.706,371.103 305.200,371.235 305.200 C 371.366 305.200,371.905 304.345,372.432 303.300 C 372.958 302.255,373.502 301.310,373.639 301.200 C 374.099 300.832,375.200 298.447,375.200 297.820 C 375.200 297.479,375.380 297.200,375.600 297.200 C 375.820 297.200,376.000 296.840,376.000 296.400 C 376.000 295.960,376.180 295.600,376.400 295.600 C 376.620 295.600,376.800 295.255,376.800 294.833 C 376.800 294.412,376.935 294.007,377.100 293.933 C 377.476 293.766,378.775 291.636,379.071 290.700 C 379.193 290.315,379.452 290.000,379.647 290.000 C 379.841 290.000,380.000 289.640,380.000 289.200 C 380.000 288.760,380.180 288.400,380.400 288.400 C 380.620 288.400,380.800 288.040,380.800 287.600 C 380.800 287.160,380.980 286.800,381.200 286.800 C 381.420 286.800,381.600 286.350,381.600 285.800 C 381.600 285.250,381.780 284.800,382.000 284.800 C 382.220 284.800,382.400 284.440,382.400 284.000 C 382.400 283.560,382.580 283.200,382.800 283.200 C 383.020 283.200,383.200 282.840,383.200 282.400 C 383.200 281.960,383.380 281.600,383.600 281.600 C 383.820 281.600,384.000 281.240,384.000 280.800 C 384.000 280.360,384.147 280.000,384.328 280.000 C 384.508 280.000,384.900 279.100,385.200 278.000 C 385.500 276.900,385.892 276.000,386.072 276.000 C 386.253 276.000,386.400 275.645,386.400 275.212 C 386.400 274.779,386.760 273.783,387.200 273.000 C 387.640 272.217,388.000 271.221,388.000 270.788 C 388.000 270.355,388.180 270.000,388.400 270.000 C 388.620 270.000,388.800 269.638,388.800 269.195 C 388.800 268.752,388.976 268.077,389.191 267.695 C 389.938 266.368,391.600 260.776,391.600 259.592 C 391.600 258.936,391.780 258.400,392.000 258.400 C 392.220 258.400,392.400 257.860,392.400 257.200 C 392.400 256.540,392.580 256.000,392.800 256.000 C 393.020 256.000,393.200 255.381,393.200 254.624 C 393.200 253.867,393.380 253.136,393.600 253.000 C 393.820 252.864,394.000 252.223,394.000 251.576 C 394.000 250.929,394.180 250.400,394.400 250.400 C 394.620 250.400,394.800 249.691,394.800 248.824 C 394.800 247.957,394.980 247.136,395.200 247.000 C 395.420 246.864,395.600 245.953,395.600 244.976 C 395.600 243.999,395.780 243.200,396.000 243.200 C 396.220 243.200,396.400 242.491,396.400 241.624 C 396.400 240.757,396.580 239.936,396.800 239.800 C 397.020 239.664,397.200 238.663,397.200 237.576 C 397.200 236.489,397.380 235.600,397.600 235.600 C 397.822 235.600,398.000 234.533,398.000 233.200 C 398.000 231.867,398.178 230.800,398.400 230.800 C 398.627 230.800,398.800 229.627,398.800 228.080 C 398.800 226.437,398.998 225.162,399.300 224.860 C 400.029 224.131,400.029 175.869,399.300 175.140 C 398.998 174.838,398.800 173.563,398.800 171.920 C 398.800 170.373,398.627 169.200,398.400 169.200 C 398.178 169.200,398.000 168.133,398.000 166.800 C 398.000 165.467,397.822 164.400,397.600 164.400 C 397.380 164.400,397.200 163.511,397.200 162.424 C 397.200 161.337,397.020 160.336,396.800 160.200 C 396.580 160.064,396.400 159.243,396.400 158.376 C 396.400 157.509,396.220 156.800,396.000 156.800 C 395.780 156.800,395.600 156.001,395.600 155.024 C 395.600 154.047,395.420 153.136,395.200 153.000 C 394.980 152.864,394.800 152.043,394.800 151.176 C 394.800 150.309,394.620 149.600,394.400 149.600 C 394.180 149.600,394.000 149.071,394.000 148.424 C 394.000 147.777,393.820 147.136,393.600 147.000 C 393.380 146.864,393.200 146.133,393.200 145.376 C 393.200 144.619,393.020 144.000,392.800 144.000 C 392.580 144.000,392.400 143.460,392.400 142.800 C 392.400 142.140,392.220 141.600,392.000 141.600 C 391.780 141.600,391.600 141.064,391.600 140.408 C 391.600 139.224,389.938 133.632,389.191 132.305 C 388.976 131.923,388.800 131.248,388.800 130.805 C 388.800 130.362,388.620 130.000,388.400 130.000 C 388.180 130.000,388.000 129.645,388.000 129.212 C 388.000 128.779,387.640 127.783,387.200 127.000 C 386.760 126.217,386.400 125.221,386.400 124.788 C 386.400 124.355,386.253 124.000,386.072 124.000 C 385.892 124.000,385.500 123.100,385.200 122.000 C 384.900 120.900,384.508 120.000,384.328 120.000 C 384.147 120.000,384.000 119.640,384.000 119.200 C 384.000 118.760,383.820 118.400,383.600 118.400 C 383.380 118.400,383.200 118.040,383.200 117.600 C 383.200 117.160,383.020 116.800,382.800 116.800 C 382.580 116.800,382.400 116.440,382.400 116.000 C 382.400 115.560,382.220 115.200,382.000 115.200 C 381.780 115.200,381.600 114.750,381.600 114.200 C 381.600 113.650,381.420 113.200,381.200 113.200 C 380.980 113.200,380.800 112.840,380.800 112.400 C 380.800 111.960,380.620 111.600,380.400 111.600 C 380.180 111.600,380.000 111.240,380.000 110.800 C 380.000 110.360,379.855 110.000,379.679 110.000 C 379.502 110.000,378.917 109.103,378.379 108.006 C 377.840 106.910,377.265 106.010,377.100 106.006 C 376.935 106.003,376.800 105.640,376.800 105.200 C 376.800 104.760,376.620 104.400,376.400 104.400 C 376.180 104.400,376.000 104.040,376.000 103.600 C 376.000 103.160,375.820 102.800,375.600 102.800 C 375.380 102.800,375.200 102.521,375.200 102.180 C 375.200 101.553,374.099 99.168,373.639 98.800 C 373.502 98.690,372.958 97.745,372.432 96.700 C 371.905 95.655,371.366 94.800,371.235 94.800 C 371.103 94.800,370.771 94.294,370.497 93.675 C 370.224 93.056,369.640 92.164,369.200 91.692 C 368.760 91.220,368.400 90.596,368.400 90.305 C 368.400 90.014,368.040 89.517,367.600 89.200 C 367.160 88.883,366.800 88.343,366.800 88.000 C 366.800 87.657,366.440 87.117,366.000 86.800 C 365.560 86.483,365.200 86.020,365.200 85.771 C 365.200 85.522,364.660 84.754,364.000 84.063 C 363.340 83.372,362.800 82.575,362.800 82.292 C 362.800 82.009,362.440 81.517,362.000 81.200 C 361.560 80.883,361.200 80.393,361.200 80.112 C 361.200 79.830,361.020 79.600,360.800 79.600 C 360.580 79.600,360.400 79.396,360.400 79.147 C 360.400 78.898,360.083 78.403,359.696 78.047 C 359.308 77.691,358.463 76.680,357.817 75.800 C 357.171 74.920,356.534 74.110,356.402 74.000 C 356.270 73.890,355.725 73.170,355.192 72.400 C 354.658 71.630,353.362 70.157,352.311 69.126 C 351.260 68.095,350.400 67.070,350.400 66.848 C 350.400 66.626,348.610 64.680,346.421 62.522 C 341.590 57.759,342.241 58.410,337.478 53.579 C 335.320 51.390,333.374 49.600,333.152 49.600 C 332.930 49.600,331.905 48.740,330.874 47.689 C 329.843 46.638,328.370 45.338,327.600 44.800 C 326.830 44.263,325.752 43.413,325.204 42.911 C 324.656 42.410,324.054 42.000,323.865 42.000 C 323.676 42.000,323.017 41.460,322.400 40.800 C 321.783 40.140,321.081 39.600,320.840 39.600 C 320.598 39.600,320.400 39.420,320.400 39.200 C 320.400 38.980,320.170 38.800,319.888 38.800 C 319.607 38.800,319.117 38.440,318.800 38.000 C 318.483 37.560,317.991 37.200,317.708 37.200 C 317.425 37.200,316.628 36.660,315.937 36.000 C 315.246 35.340,314.478 34.800,314.229 34.800 C 313.980 34.800,313.517 34.440,313.200 34.000 C 312.883 33.560,312.343 33.200,312.000 33.200 C 311.657 33.200,311.117 32.840,310.800 32.400 C 310.483 31.960,309.986 31.600,309.695 31.600 C 309.404 31.600,308.780 31.240,308.308 30.800 C 307.836 30.360,306.944 29.776,306.325 29.503 C 305.706 29.229,305.200 28.897,305.200 28.765 C 305.200 28.634,304.345 28.095,303.300 27.568 C 302.255 27.042,301.310 26.504,301.200 26.374 C 300.851 25.960,298.299 24.800,297.739 24.800 C 297.442 24.800,297.200 24.620,297.200 24.400 C 297.200 24.180,296.855 24.000,296.433 24.000 C 296.012 24.000,295.607 23.865,295.533 23.700 C 295.366 23.324,293.236 22.025,292.300 21.729 C 291.915 21.607,291.600 21.348,291.600 21.153 C 291.600 20.959,291.255 20.800,290.833 20.800 C 290.412 20.800,290.007 20.665,289.933 20.500 C 289.712 20.001,286.378 18.400,285.562 18.400 C 285.143 18.400,284.800 18.220,284.800 18.000 C 284.800 17.780,284.440 17.600,284.000 17.600 C 283.560 17.600,283.200 17.420,283.200 17.200 C 283.200 16.980,282.840 16.800,282.400 16.800 C 281.960 16.800,281.600 16.620,281.600 16.400 C 281.600 16.180,281.240 16.000,280.800 16.000 C 280.360 16.000,280.000 15.820,280.000 15.600 C 280.000 15.380,279.561 15.200,279.024 15.200 C 278.487 15.200,277.936 15.020,277.800 14.800 C 277.664 14.580,277.203 14.400,276.776 14.400 C 276.349 14.400,276.000 14.220,276.000 14.000 C 276.000 13.780,275.645 13.600,275.212 13.600 C 274.779 13.600,273.783 13.240,273.000 12.800 C 272.217 12.360,271.221 12.000,270.788 12.000 C 270.355 12.000,270.000 11.820,270.000 11.600 C 270.000 11.380,269.580 11.200,269.067 11.200 C 268.553 11.200,268.011 11.078,267.862 10.929 C 267.425 10.492,262.262 8.838,261.945 9.034 C 261.786 9.133,261.542 9.030,261.404 8.807 C 261.266 8.583,260.634 8.400,260.000 8.400 C 259.366 8.400,258.736 8.220,258.600 8.000 C 258.464 7.780,257.823 7.600,257.176 7.600 C 256.529 7.600,256.000 7.420,256.000 7.200 C 256.000 6.980,255.370 6.800,254.600 6.800 C 253.830 6.800,253.200 6.620,253.200 6.400 C 253.200 6.180,252.570 6.000,251.800 6.000 C 251.030 6.000,250.400 5.820,250.400 5.600 C 250.400 5.380,249.691 5.200,248.824 5.200 C 247.957 5.200,247.136 5.020,247.000 4.800 C 246.864 4.580,245.953 4.400,244.976 4.400 C 243.999 4.400,243.200 4.220,243.200 4.000 C 243.200 3.780,242.480 3.600,241.600 3.600 C 240.720 3.600,240.000 3.420,240.000 3.200 C 240.000 2.980,239.010 2.800,237.800 2.800 C 236.590 2.800,235.600 2.620,235.600 2.400 C 235.600 2.178,234.533 2.000,233.200 2.000 C 231.867 2.000,230.800 1.822,230.800 1.600 C 230.800 1.372,229.611 1.200,228.033 1.200 C 226.238 1.200,225.211 1.032,225.107 0.720 C 224.948 0.244,188.291 -0.109,178.700 0.273 M134.723 91.640 C 139.765 92.821,142.537 96.103,146.006 105.000 C 146.178 105.440,146.592 106.430,146.926 107.200 C 147.261 107.970,148.260 110.400,149.147 112.600 C 151.316 117.980,153.126 122.405,153.606 123.500 C 153.823 123.995,154.162 124.805,154.360 125.300 C 154.558 125.795,155.098 127.053,155.560 128.096 C 156.022 129.138,156.400 130.263,156.400 130.596 C 156.400 130.928,156.580 131.200,156.800 131.200 C 157.020 131.200,157.200 131.472,157.200 131.805 C 157.200 132.138,157.359 132.723,157.553 133.105 C 157.748 133.487,158.129 134.340,158.400 135.000 C 158.671 135.660,159.052 136.513,159.247 136.895 C 159.441 137.277,159.600 137.862,159.600 138.195 C 159.600 138.528,159.780 138.800,160.000 138.800 C 160.220 138.800,160.400 139.072,160.400 139.405 C 160.400 139.738,160.559 140.323,160.753 140.705 C 160.948 141.087,161.289 141.850,161.513 142.400 C 161.736 142.950,162.193 144.030,162.529 144.800 C 164.322 148.915,164.880 152.261,164.049 153.905 C 163.856 154.287,163.410 155.230,163.058 156.000 C 162.299 157.661,160.415 160.916,160.048 161.200 C 159.905 161.310,158.985 162.390,158.002 163.600 C 157.019 164.810,155.941 166.070,155.607 166.400 C 155.273 166.730,154.298 167.810,153.441 168.800 C 152.583 169.790,151.049 171.500,150.031 172.600 C 143.096 180.094,142.917 182.320,148.533 191.200 C 150.601 194.468,157.209 204.020,157.897 204.735 C 158.180 205.029,158.902 205.929,159.502 206.735 C 160.101 207.541,160.871 208.470,161.214 208.800 C 161.557 209.130,162.664 210.485,163.674 211.812 C 169.025 218.837,178.702 228.010,188.800 235.630 C 190.670 237.041,192.290 238.301,192.400 238.431 C 192.862 238.976,200.004 243.600,200.385 243.600 C 200.613 243.600,200.800 243.759,200.800 243.953 C 200.800 244.148,201.115 244.410,201.500 244.536 C 201.885 244.662,203.100 245.310,204.200 245.977 C 206.892 247.608,220.765 254.400,221.406 254.400 C 221.518 254.400,222.372 254.732,223.304 255.138 C 227.098 256.789,232.034 257.399,233.905 256.447 C 234.287 256.252,235.137 255.847,235.794 255.547 C 237.095 254.951,240.012 252.186,241.600 250.043 C 242.150 249.301,242.870 248.373,243.200 247.980 C 244.637 246.273,245.067 245.721,245.986 244.400 C 246.523 243.630,247.066 242.910,247.194 242.800 C 247.322 242.690,248.304 241.340,249.375 239.800 C 254.724 232.108,256.423 230.191,259.000 228.941 C 262.490 227.248,266.848 227.587,272.145 229.964 C 273.055 230.372,275.150 231.289,276.800 232.002 C 278.450 232.715,283.789 235.257,288.663 237.649 C 293.538 240.042,297.723 242.000,297.963 242.000 C 298.204 242.000,298.400 242.180,298.400 242.400 C 298.400 242.620,298.760 242.800,299.200 242.800 C 299.640 242.800,300.000 242.980,300.000 243.200 C 300.000 243.420,300.216 243.600,300.481 243.600 C 301.568 243.600,317.267 251.663,318.699 252.956 C 323.791 257.557,319.857 280.347,312.233 290.405 C 307.594 296.526,291.035 308.000,286.841 308.000 C 286.592 308.000,286.077 308.159,285.695 308.353 C 283.826 309.304,280.429 310.400,279.352 310.400 C 278.916 310.400,278.389 310.562,278.180 310.759 C 276.502 312.344,261.423 312.616,254.000 311.195 C 250.147 310.458,248.242 310.061,246.600 309.652 C 245.114 309.282,244.335 309.067,240.600 308.000 C 239.830 307.780,238.615 307.441,237.900 307.246 C 233.290 305.989,218.617 300.730,210.900 297.569 C 210.405 297.366,209.595 297.043,209.100 296.851 C 207.763 296.332,204.511 294.853,201.844 293.550 C 200.548 292.918,199.243 292.400,198.944 292.400 C 198.645 292.400,198.400 292.220,198.400 292.000 C 198.400 291.780,198.128 291.600,197.795 291.600 C 197.239 291.600,195.676 290.877,195.200 290.399 C 195.090 290.289,193.470 289.405,191.600 288.435 C 186.442 285.759,173.212 277.472,172.400 276.409 C 172.290 276.265,171.304 275.537,170.209 274.792 C 169.114 274.046,167.944 273.212,167.609 272.937 C 167.274 272.663,165.380 271.146,163.400 269.567 C 151.541 260.111,140.695 249.595,129.600 236.800 C 128.170 235.151,126.820 233.601,126.600 233.356 C 125.368 231.986,124.040 230.394,122.800 228.801 C 122.030 227.812,121.183 226.732,120.918 226.401 C 120.653 226.071,119.372 224.450,118.070 222.800 C 115.785 219.903,115.119 218.990,111.509 213.800 C 110.590 212.480,109.515 211.051,109.119 210.625 C 108.724 210.198,108.400 209.628,108.400 209.358 C 108.400 209.088,108.263 208.807,108.095 208.733 C 107.261 208.368,100.999 198.996,97.450 192.800 C 95.768 189.862,91.056 180.140,89.987 177.400 C 87.499 171.025,86.526 167.787,84.814 160.200 C 82.580 150.294,83.489 134.288,86.791 125.400 C 87.281 124.080,87.779 122.575,87.896 122.056 C 88.014 121.537,89.009 119.377,90.107 117.256 C 91.205 115.135,92.306 112.996,92.552 112.503 C 92.798 112.010,93.135 111.605,93.300 111.603 C 93.465 111.601,93.600 111.364,93.600 111.075 C 93.600 110.787,93.920 110.202,94.311 109.775 C 94.702 109.349,95.458 108.370,95.992 107.600 C 96.525 106.830,97.071 106.110,97.204 106.000 C 97.337 105.890,97.741 105.369,98.102 104.842 C 100.429 101.438,108.569 94.400,110.178 94.400 C 110.520 94.400,110.800 94.220,110.800 94.000 C 110.800 93.780,111.072 93.600,111.405 93.600 C 111.738 93.600,112.323 93.442,112.705 93.249 C 113.908 92.641,116.219 92.000,117.228 91.994 C 117.763 91.991,118.470 91.813,118.800 91.600 C 119.626 91.066,132.411 91.098,134.723 91.640 " stroke="none" fill="#4cac53" fill-rule="evenodd"></path><path id="path2" d="M118.939 91.506 C 118.686 91.668,122.253 91.800,126.866 91.800 C 131.479 91.800,134.836 91.683,134.327 91.540 C 133.033 91.177,119.502 91.147,118.939 91.506 M115.200 92.400 C 114.405 92.914,115.404 92.914,116.600 92.400 L 117.400 92.056 116.600 92.034 C 116.160 92.022,115.530 92.187,115.200 92.400 M138.039 92.900 C 138.135 92.955,139.011 93.720,139.987 94.600 C 140.963 95.480,141.501 95.840,141.182 95.400 C 140.388 94.307,138.681 92.801,138.233 92.800 C 138.032 92.800,137.944 92.845,138.039 92.900 M105.585 97.232 L 104.200 98.463 105.488 97.613 C 106.630 96.859,107.493 96.000,107.108 96.000 C 107.032 96.000,106.347 96.554,105.585 97.232 M101.254 101.267 C 98.869 103.783,97.376 105.600,97.692 105.600 C 97.931 105.600,104.099 98.763,103.946 98.669 C 103.866 98.620,102.654 99.789,101.254 101.267 M147.130 108.600 C 148.918 113.138,149.307 114.026,149.450 113.883 C 149.643 113.690,147.187 107.527,146.707 107.000 C 146.507 106.780,146.697 107.500,147.130 108.600 M94.057 110.057 C 93.775 110.509,93.632 110.966,93.740 111.073 C 93.847 111.181,94.144 110.878,94.400 110.400 C 95.005 109.270,94.724 108.990,94.057 110.057 M150.846 117.400 C 150.853 117.620,151.206 118.520,151.629 119.400 C 152.052 120.280,152.286 120.550,152.149 120.000 C 151.867 118.867,150.825 116.788,150.846 117.400 M88.580 120.185 C 88.219 120.947,87.988 121.765,88.068 122.004 C 88.148 122.243,88.516 121.620,88.887 120.619 C 89.685 118.468,89.511 118.223,88.580 120.185 M86.509 126.107 C 86.049 127.478,85.572 129.410,85.451 130.400 L 85.231 132.200 85.628 130.600 C 85.846 129.720,86.392 127.858,86.842 126.463 C 87.291 125.067,87.588 123.855,87.503 123.769 C 87.417 123.684,86.970 124.736,86.509 126.107 M84.640 134.040 C 84.493 134.957,84.452 135.785,84.547 135.880 C 84.642 135.976,84.846 135.310,85.000 134.400 C 85.154 133.490,85.196 132.662,85.093 132.560 C 84.990 132.457,84.787 133.123,84.640 134.040 M84.124 138.600 C 84.126 139.920,84.201 140.412,84.290 139.693 C 84.379 138.974,84.377 137.894,84.286 137.293 C 84.195 136.692,84.122 137.280,84.124 138.600 M83.720 143.200 C 83.720 144.410,83.795 144.905,83.887 144.300 C 83.978 143.695,83.978 142.705,83.887 142.100 C 83.795 141.495,83.720 141.990,83.720 143.200 M162.713 146.219 C 163.084 147.220,163.439 147.882,163.503 147.691 C 163.631 147.306,162.493 144.400,162.214 144.400 C 162.117 144.400,162.342 145.219,162.713 146.219 M83.293 147.600 C 83.293 148.370,83.375 148.685,83.476 148.300 C 83.576 147.915,83.576 147.285,83.476 146.900 C 83.375 146.515,83.293 146.830,83.293 147.600 M163.798 151.197 C 163.799 152.696,163.935 153.839,164.100 153.737 C 164.487 153.499,164.480 149.545,164.092 148.936 C 163.930 148.680,163.798 149.698,163.798 151.197 M83.693 152.000 C 83.685 152.770,83.816 154.390,83.983 155.600 C 84.248 157.516,84.290 157.593,84.309 156.200 C 84.320 155.320,84.190 153.700,84.018 152.600 C 83.769 150.997,83.704 150.878,83.693 152.000 M162.730 156.018 C 162.361 156.888,162.131 157.600,162.219 157.600 C 162.513 157.600,163.650 155.151,163.524 154.791 C 163.456 154.596,163.098 155.149,162.730 156.018 M84.662 159.400 C 84.796 160.280,84.972 161.075,85.053 161.167 C 85.356 161.510,85.129 159.368,84.781 158.600 C 84.529 158.042,84.493 158.285,84.662 159.400 M85.645 163.400 C 85.640 163.840,85.885 165.100,86.191 166.200 C 86.496 167.300,86.750 167.840,86.755 167.400 C 86.760 166.960,86.515 165.700,86.209 164.600 C 85.904 163.500,85.650 162.960,85.645 163.400 M156.600 164.800 C 155.968 165.460,155.619 165.990,155.825 165.978 C 156.178 165.957,158.239 163.600,157.905 163.600 C 157.820 163.600,157.232 164.140,156.600 164.800 M151.465 170.567 C 149.779 172.419,148.400 174.028,148.400 174.143 C 148.400 174.258,149.339 173.328,150.486 172.076 C 151.634 170.824,153.109 169.215,153.765 168.500 C 154.420 167.785,154.861 167.200,154.743 167.200 C 154.626 167.200,153.151 168.715,151.465 170.567 M88.045 172.000 C 88.053 172.330,88.406 173.320,88.829 174.200 C 89.252 175.080,89.486 175.362,89.349 174.826 C 88.973 173.361,88.029 171.314,88.045 172.000 M147.144 175.500 C 145.993 176.889,145.506 177.600,145.704 177.600 C 145.814 177.600,146.386 176.970,146.973 176.200 C 148.063 174.771,148.195 174.232,147.144 175.500 M144.876 178.827 C 144.188 179.929,143.863 182.811,144.297 183.957 C 144.572 184.681,144.652 184.284,144.630 182.318 C 144.611 180.649,144.799 179.484,145.157 179.052 C 145.463 178.683,145.637 178.303,145.542 178.209 C 145.447 178.114,145.148 178.392,144.876 178.827 M144.800 185.429 C 144.800 185.760,146.845 189.200,147.042 189.200 C 147.133 189.200,146.737 188.300,146.162 187.200 C 145.200 185.360,144.800 184.840,144.800 185.429 M147.809 190.626 C 148.181 191.301,148.841 192.291,149.276 192.826 L 150.067 193.800 149.391 192.574 C 149.019 191.899,148.359 190.909,147.924 190.374 L 147.133 189.400 147.809 190.626 M99.230 195.800 C 99.724 196.680,100.300 197.580,100.510 197.800 C 101.109 198.428,99.739 195.894,98.996 195.000 C 98.630 194.560,98.735 194.920,99.230 195.800 M152.799 198.113 C 153.964 199.825,155.101 201.339,155.325 201.477 C 155.794 201.767,152.165 196.502,151.274 195.600 C 150.948 195.270,151.634 196.401,152.799 198.113 M101.383 199.400 C 102.538 201.301,105.621 205.600,105.829 205.600 C 105.933 205.600,104.993 204.115,103.741 202.300 C 101.367 198.859,100.127 197.334,101.383 199.400 M160.815 208.671 C 160.824 208.852,161.655 209.900,162.663 211.000 L 164.495 213.000 163.153 211.200 C 161.539 209.034,160.795 208.229,160.815 208.671 M108.422 209.400 C 108.427 209.929,109.542 211.391,109.769 211.165 C 109.866 211.068,109.602 210.541,109.182 209.994 C 108.761 209.447,108.420 209.180,108.422 209.400 M166.293 215.400 C 167.413 216.720,169.017 218.430,169.858 219.200 C 170.699 219.970,170.233 219.340,168.823 217.800 C 165.083 213.715,163.960 212.650,166.293 215.400 M112.340 215.116 C 112.833 215.809,113.444 216.504,113.697 216.660 C 113.950 216.817,113.754 216.377,113.260 215.684 C 112.767 214.991,112.156 214.296,111.903 214.140 C 111.650 213.983,111.846 214.423,112.340 215.116 M116.874 221.300 C 117.628 222.235,118.865 223.804,119.623 224.786 C 120.380 225.768,121.315 226.928,121.700 227.362 C 122.086 227.796,122.806 228.746,123.300 229.473 C 123.795 230.200,124.340 230.796,124.512 230.797 C 124.683 230.799,123.354 228.955,121.557 226.700 C 119.761 224.445,117.820 221.932,117.245 221.115 C 116.670 220.299,116.043 219.624,115.852 219.615 C 115.660 219.607,116.121 220.365,116.874 221.300 M175.600 224.925 C 175.600 224.994,176.185 225.579,176.900 226.225 L 178.200 227.400 177.025 226.100 C 175.930 224.888,175.600 224.616,175.600 224.925 M178.422 227.500 C 178.434 227.665,179.019 228.238,179.722 228.774 L 181.000 229.749 179.825 228.474 C 178.603 227.149,178.385 226.997,178.422 227.500 M257.800 229.546 C 256.659 230.252,255.270 231.678,254.038 233.410 C 253.729 233.845,254.459 233.210,255.659 232.000 C 256.860 230.790,258.192 229.586,258.621 229.324 C 259.049 229.061,259.310 228.837,259.200 228.825 C 259.090 228.813,258.460 229.137,257.800 229.546 M182.739 231.143 C 184.700 232.987,191.741 238.400,192.178 238.400 C 192.334 238.400,190.873 237.203,188.931 235.741 C 186.989 234.278,184.410 232.278,183.200 231.295 C 181.002 229.510,181.002 229.510,182.739 231.143 M125.601 232.200 C 126.151 232.860,126.645 233.475,126.700 233.567 C 126.755 233.658,126.888 233.645,126.996 233.538 C 127.104 233.430,126.609 232.815,125.897 232.171 L 124.603 231.000 125.601 232.200 M282.000 234.747 C 286.025 236.755,287.200 237.269,287.200 237.023 C 287.200 236.826,278.800 232.792,278.459 232.825 C 278.317 232.839,279.910 233.704,282.000 234.747 M127.200 234.125 C 127.200 234.194,127.785 234.779,128.500 235.425 L 129.800 236.600 128.625 235.300 C 127.530 234.088,127.200 233.816,127.200 234.125 M252.144 235.900 C 251.541 236.725,250.599 238.016,250.051 238.768 C 249.503 239.521,249.256 240.013,249.502 239.861 C 249.748 239.709,250.765 238.418,251.761 236.992 C 253.689 234.235,253.990 233.375,252.144 235.900 M130.822 238.296 C 131.580 239.118,132.245 239.868,132.300 239.962 C 132.355 240.056,132.477 240.057,132.571 239.963 C 132.792 239.742,130.178 236.800,129.761 236.800 C 129.586 236.800,130.063 237.473,130.822 238.296 M287.633 237.349 C 288.045 237.717,290.400 238.800,290.400 238.621 C 290.400 238.390,288.182 237.200,287.753 237.200 C 287.596 237.200,287.542 237.267,287.633 237.349 M134.222 242.025 C 135.090 243.029,135.881 243.788,135.980 243.712 C 136.080 243.635,135.370 242.814,134.403 241.886 L 132.644 240.200 134.222 242.025 M294.033 240.549 C 294.445 240.917,296.800 242.000,296.800 241.821 C 296.800 241.590,294.582 240.400,294.153 240.400 C 293.996 240.400,293.942 240.467,294.033 240.549 M246.068 244.248 C 245.555 245.040,245.322 245.572,245.549 245.431 C 246.182 245.041,247.699 242.799,247.327 242.805 C 247.147 242.808,246.581 243.457,246.068 244.248 M139.200 247.361 C 143.185 251.531,150.571 258.763,150.706 258.628 C 150.803 258.530,137.112 244.856,136.471 244.411 C 136.322 244.308,137.550 245.635,139.200 247.361 M308.833 247.761 C 308.925 247.850,310.710 248.775,312.800 249.816 C 317.495 252.155,318.672 252.970,319.638 254.555 C 320.101 255.314,320.398 255.545,320.399 255.147 C 320.401 254.027,317.381 251.698,313.214 249.607 C 309.663 247.825,308.311 247.255,308.833 247.761 M213.600 251.200 C 214.810 251.839,215.980 252.362,216.200 252.362 C 216.420 252.362,215.610 251.839,214.400 251.200 C 213.190 250.561,212.020 250.038,211.800 250.038 C 211.580 250.038,212.390 250.561,213.600 251.200 M239.311 252.770 C 238.701 253.747,235.451 256.000,234.652 256.000 C 234.319 256.000,233.943 256.168,233.816 256.374 C 233.349 257.129,236.047 256.030,237.511 254.869 C 239.341 253.417,240.649 252.000,240.158 252.000 C 239.957 252.000,239.576 252.347,239.311 252.770 M216.800 252.583 C 216.800 252.824,219.263 254.000,219.761 253.998 C 220.003 253.996,219.750 253.762,219.200 253.476 C 217.872 252.787,216.800 252.388,216.800 252.583 M221.254 254.587 C 221.590 254.923,224.400 256.016,224.400 255.811 C 224.400 255.701,223.748 255.338,222.951 255.005 C 221.475 254.389,220.918 254.251,221.254 254.587 M224.833 256.144 C 224.925 256.223,225.540 256.408,226.200 256.556 C 227.076 256.752,227.238 256.715,226.800 256.418 C 226.260 256.053,224.432 255.798,224.833 256.144 M320.557 261.275 L 320.514 266.200 320.892 262.678 C 321.102 260.714,321.121 258.536,320.935 257.753 C 320.692 256.736,320.588 257.707,320.557 261.275 M229.100 257.089 C 229.815 257.178,230.985 257.178,231.700 257.089 C 232.415 257.001,231.830 256.928,230.400 256.928 C 228.970 256.928,228.385 257.001,229.100 257.089 M151.800 259.561 C 152.718 260.627,157.200 264.566,157.200 264.307 C 157.200 264.212,155.805 262.897,154.100 261.384 C 152.395 259.870,151.360 259.050,151.800 259.561 M159.660 266.591 C 160.837 267.577,161.942 268.387,162.116 268.391 C 162.289 268.396,161.437 267.590,160.221 266.600 C 159.006 265.610,157.901 264.800,157.766 264.800 C 157.631 264.800,158.483 265.606,159.660 266.591 M319.800 269.200 C 319.646 270.110,319.604 270.938,319.707 271.040 C 319.810 271.143,320.013 270.477,320.160 269.560 C 320.307 268.643,320.348 267.815,320.253 267.720 C 320.158 267.624,319.954 268.290,319.800 269.200 M164.940 270.703 C 165.096 270.956,165.791 271.567,166.484 272.060 C 167.177 272.554,167.617 272.750,167.460 272.497 C 167.304 272.244,166.609 271.633,165.916 271.140 C 165.223 270.646,164.783 270.450,164.940 270.703 M319.029 273.429 C 318.881 274.015,318.838 274.572,318.932 274.666 C 319.027 274.760,319.224 274.358,319.371 273.771 C 319.519 273.185,319.562 272.628,319.468 272.534 C 319.373 272.440,319.176 272.842,319.029 273.429 M168.005 273.073 C 168.008 273.253,168.657 273.819,169.448 274.332 C 170.240 274.845,170.772 275.078,170.631 274.851 C 170.241 274.218,167.999 272.701,168.005 273.073 M318.249 276.215 C 318.112 276.573,318.015 277.166,318.034 277.533 C 318.053 277.900,318.227 277.669,318.421 277.020 C 318.798 275.758,318.665 275.133,318.249 276.215 M172.405 276.280 C 172.408 276.456,173.038 277.007,173.805 277.504 C 175.603 278.668,175.600 278.400,173.800 277.027 C 173.030 276.440,172.402 276.103,172.405 276.280 M317.449 279.015 C 317.312 279.373,317.215 279.966,317.234 280.333 C 317.253 280.700,317.427 280.469,317.621 279.820 C 317.998 278.558,317.865 277.933,317.449 279.015 M176.800 279.297 C 176.800 279.464,178.377 280.559,182.100 282.977 C 182.705 283.370,183.200 283.607,183.200 283.503 C 183.200 283.336,181.623 282.241,177.900 279.823 C 177.295 279.430,176.800 279.193,176.800 279.297 M316.467 282.380 C 316.233 283.051,316.127 283.600,316.231 283.600 C 316.501 283.600,317.256 281.522,317.057 281.324 C 316.967 281.233,316.701 281.708,316.467 282.380 M315.078 285.405 C 314.712 286.172,314.495 286.800,314.596 286.800 C 314.870 286.800,316.084 284.351,315.901 284.168 C 315.814 284.081,315.444 284.638,315.078 285.405 M184.800 284.579 C 184.800 284.689,185.340 285.059,186.000 285.400 C 186.660 285.741,187.200 285.931,187.200 285.821 C 187.200 285.711,186.660 285.341,186.000 285.000 C 185.340 284.659,184.800 284.469,184.800 284.579 M187.600 286.179 C 187.600 286.289,188.140 286.659,188.800 287.000 C 189.460 287.341,190.000 287.531,190.000 287.421 C 190.000 287.311,189.460 286.941,188.800 286.600 C 188.140 286.259,187.600 286.069,187.600 286.179 M312.808 289.139 C 312.043 290.162,310.063 292.439,308.408 294.198 C 305.591 297.193,305.552 297.256,307.805 295.198 C 310.030 293.164,314.618 287.678,314.327 287.399 C 314.257 287.332,313.574 288.115,312.808 289.139 M303.200 298.649 C 300.634 300.656,300.264 301.163,302.518 299.583 C 304.200 298.404,305.585 297.160,305.149 297.221 C 305.067 297.232,304.190 297.875,303.200 298.649 M220.351 301.236 C 221.974 301.894,223.370 302.363,223.453 302.280 C 223.635 302.099,218.351 299.991,217.790 300.021 C 217.576 300.032,218.728 300.579,220.351 301.236 M297.600 302.436 C 296.936 302.979,296.869 303.115,297.400 302.840 C 298.705 302.166,299.428 301.612,299.000 301.615 C 298.780 301.617,298.150 301.986,297.600 302.436 M224.400 302.800 C 224.730 303.013,225.270 303.188,225.600 303.188 C 226.133 303.188,226.133 303.145,225.600 302.800 C 225.270 302.587,224.730 302.412,224.400 302.412 C 223.867 302.412,223.867 302.455,224.400 302.800 M248.000 309.982 C 248.330 310.205,248.945 310.391,249.367 310.394 C 250.390 310.402,250.071 310.173,248.600 309.844 C 247.724 309.648,247.562 309.685,248.000 309.982 M252.000 310.794 C 252.330 311.011,253.035 311.191,253.567 311.194 C 254.851 311.202,254.525 310.975,252.800 310.658 C 251.815 310.477,251.578 310.518,252.000 310.794 M276.800 310.800 L 275.800 311.120 276.876 311.160 C 277.468 311.182,278.064 311.020,278.200 310.800 C 278.481 310.345,278.220 310.345,276.800 310.800 M256.200 311.592 C 256.957 311.925,260.721 312.163,260.367 311.856 C 260.275 311.776,259.120 311.605,257.800 311.476 C 256.276 311.326,255.692 311.369,256.200 311.592 M272.400 311.600 L 270.600 311.880 272.200 311.934 C 273.080 311.963,274.070 311.813,274.400 311.600 C 274.730 311.387,274.820 311.237,274.600 311.266 C 274.380 311.296,273.390 311.446,272.400 311.600 M263.900 312.293 C 264.835 312.377,266.365 312.377,267.300 312.293 C 268.235 312.209,267.470 312.140,265.600 312.140 C 263.730 312.140,262.965 312.209,263.900 312.293 " stroke="none" fill="#85c787" fill-rule="evenodd"></path><path id="path3" d="M83.693 149.600 C 83.693 150.370,83.775 150.685,83.876 150.300 C 83.976 149.915,83.976 149.285,83.876 148.900 C 83.775 148.515,83.693 148.830,83.693 149.600 M137.583 245.300 C 139.241 247.066,139.600 247.384,139.600 247.083 C 139.600 247.019,138.745 246.164,137.700 245.183 L 135.800 243.400 137.583 245.300 M320.509 259.600 C 320.509 260.590,320.587 260.995,320.682 260.500 C 320.778 260.005,320.778 259.195,320.682 258.700 C 320.587 258.205,320.509 258.610,320.509 259.600 " stroke="none" fill="#a4d4a4" fill-rule="evenodd"></path><path id="path4" d="M119.400 92.000 L 117.800 92.286 119.400 92.296 C 120.280 92.301,121.540 92.168,122.200 92.000 L 123.400 91.695 122.200 91.704 C 121.540 91.709,120.280 91.842,119.400 92.000 M127.633 91.752 C 127.725 91.836,129.600 92.002,131.800 92.121 C 134.630 92.274,135.215 92.240,133.800 92.004 C 131.743 91.661,127.336 91.481,127.633 91.752 M115.600 92.800 C 114.776 93.064,114.741 93.126,115.400 93.154 C 115.840 93.173,116.470 93.013,116.800 92.800 C 117.501 92.347,117.014 92.347,115.600 92.800 M111.800 93.978 C 110.920 94.395,110.313 94.750,110.451 94.768 C 110.840 94.818,113.600 93.614,113.600 93.395 C 113.600 93.127,113.599 93.127,111.800 93.978 M139.211 94.432 C 139.987 95.185,140.941 96.250,141.330 96.800 C 141.719 97.350,141.912 97.530,141.760 97.200 C 141.185 95.957,139.535 93.994,138.684 93.538 C 138.125 93.239,138.318 93.567,139.211 94.432 M105.361 97.823 C 104.680 98.365,102.730 100.381,101.028 102.304 L 97.934 105.800 101.267 102.312 C 103.100 100.394,105.220 98.369,105.978 97.812 C 106.735 97.256,107.185 96.808,106.978 96.819 C 106.770 96.829,106.043 97.281,105.361 97.823 M96.102 108.100 C 94.225 110.570,93.031 112.400,93.297 112.400 C 93.402 112.400,94.135 111.455,94.927 110.300 C 95.719 109.145,96.749 107.705,97.217 107.100 C 97.684 106.495,97.984 106.000,97.882 106.000 C 97.780 106.000,96.979 106.945,96.102 108.100 M153.007 123.879 C 153.607 125.314,154.000 125.962,154.000 125.516 C 154.000 125.084,152.785 122.400,152.589 122.400 C 152.479 122.400,152.667 123.066,153.007 123.879 M154.218 126.900 C 154.368 127.395,154.655 127.976,154.856 128.191 C 155.057 128.406,155.019 128.001,154.772 127.291 C 154.265 125.838,153.797 125.508,154.218 126.900 M156.067 131.220 C 156.301 131.892,156.567 132.367,156.657 132.276 C 156.856 132.078,156.101 130.000,155.831 130.000 C 155.727 130.000,155.833 130.549,156.067 131.220 M85.422 132.222 C 85.272 133.025,85.228 133.762,85.326 133.860 C 85.424 133.957,85.627 133.381,85.778 132.578 C 85.928 131.775,85.972 131.038,85.874 130.940 C 85.776 130.843,85.573 131.419,85.422 132.222 M156.800 132.884 C 156.800 133.316,158.015 136.000,158.211 136.000 C 158.321 136.000,158.133 135.334,157.793 134.521 C 157.193 133.086,156.800 132.438,156.800 132.884 M84.656 136.084 C 84.521 136.588,84.432 137.720,84.458 138.600 C 84.497 139.920,84.559 139.780,84.813 137.800 C 85.137 135.278,85.070 134.541,84.656 136.084 M83.932 145.300 C 83.834 146.675,83.867 149.060,84.005 150.600 C 84.209 152.879,84.262 152.413,84.292 148.100 C 84.330 142.332,84.210 141.393,83.932 145.300 M163.370 151.314 C 163.386 152.774,163.522 153.661,163.672 153.285 C 164.033 152.376,164.017 150.388,163.642 149.429 C 163.462 148.971,163.352 149.735,163.370 151.314 M84.440 155.633 C 84.462 156.385,84.630 157.450,84.813 158.000 C 85.029 158.646,85.066 158.220,84.919 156.800 C 84.659 154.283,84.381 153.607,84.440 155.633 M85.268 160.000 C 85.288 161.039,85.918 162.746,85.932 161.800 C 85.938 161.360,85.789 160.640,85.600 160.200 C 85.389 159.710,85.261 159.632,85.268 160.000 M158.400 161.839 C 158.400 162.044,157.320 163.408,156.000 164.870 C 154.680 166.333,153.600 167.628,153.600 167.748 C 153.600 167.940,155.896 165.497,158.155 162.902 C 158.585 162.407,158.816 161.882,158.668 161.735 C 158.521 161.587,158.400 161.634,158.400 161.839 M86.056 163.600 C 86.056 163.930,86.211 164.560,86.400 165.000 C 86.617 165.504,86.744 165.578,86.744 165.200 C 86.744 164.870,86.589 164.240,86.400 163.800 C 86.183 163.296,86.056 163.222,86.056 163.600 M86.812 167.200 C 86.812 167.530,86.987 168.070,87.200 168.400 C 87.545 168.933,87.588 168.933,87.588 168.400 C 87.588 168.070,87.413 167.530,87.200 167.200 C 86.855 166.667,86.812 166.667,86.812 167.200 M151.381 170.100 L 149.800 171.800 151.500 170.219 C 153.081 168.748,153.384 168.400,153.081 168.400 C 153.016 168.400,152.251 169.165,151.381 170.100 M148.575 173.300 L 147.400 174.600 148.700 173.425 C 149.912 172.330,150.184 172.000,149.875 172.000 C 149.806 172.000,149.221 172.585,148.575 173.300 M143.867 179.867 C 143.507 180.226,143.538 183.683,143.906 184.263 C 144.068 184.517,144.200 183.573,144.200 182.164 C 144.200 180.755,144.185 179.602,144.167 179.601 C 144.148 179.600,144.013 179.720,143.867 179.867 M93.601 184.603 C 94.176 186.115,95.193 188.000,95.434 188.000 C 95.551 188.000,95.568 187.865,95.471 187.700 C 95.374 187.535,94.909 186.545,94.437 185.500 C 93.540 183.512,92.943 182.871,93.601 184.603 M144.400 185.353 C 144.400 185.782,145.590 188.000,145.821 188.000 C 145.931 188.000,145.723 187.415,145.359 186.700 C 144.617 185.240,144.400 184.936,144.400 185.353 M96.640 190.402 C 97.239 191.503,97.793 192.340,97.871 192.263 C 98.043 192.090,96.008 188.400,95.741 188.400 C 95.636 188.400,96.040 189.301,96.640 190.402 M147.400 190.800 C 147.741 191.460,148.111 192.000,148.221 192.000 C 148.331 192.000,148.141 191.460,147.800 190.800 C 147.459 190.140,147.089 189.600,146.979 189.600 C 146.869 189.600,147.059 190.140,147.400 190.800 M99.800 196.000 C 100.141 196.660,100.511 197.200,100.621 197.200 C 100.731 197.200,100.541 196.660,100.200 196.000 C 99.859 195.340,99.489 194.800,99.379 194.800 C 99.269 194.800,99.459 195.340,99.800 196.000 M153.020 199.249 C 154.291 201.092,155.597 202.870,155.924 203.200 C 156.250 203.530,155.389 202.132,154.010 200.094 C 152.632 198.056,151.326 196.278,151.107 196.143 C 150.889 196.008,151.750 197.405,153.020 199.249 M102.163 199.929 C 102.484 200.550,103.060 201.315,103.442 201.629 C 103.834 201.952,103.649 201.461,103.015 200.500 C 101.732 198.555,101.304 198.268,102.163 199.929 M107.616 207.763 C 109.395 210.240,110.106 210.679,108.457 208.282 C 107.760 207.269,106.978 206.310,106.720 206.150 C 106.461 205.991,106.865 206.716,107.616 207.763 M159.234 207.447 C 159.765 208.133,160.280 208.623,160.379 208.535 C 160.477 208.447,160.043 207.886,159.413 207.288 L 158.269 206.200 159.234 207.447 M161.540 210.316 C 162.033 211.009,162.644 211.704,162.897 211.860 C 163.150 212.017,162.954 211.577,162.460 210.884 C 161.967 210.191,161.356 209.496,161.103 209.340 C 160.850 209.183,161.046 209.623,161.540 210.316 M112.225 214.173 C 113.235 215.618,114.145 216.800,114.246 216.800 C 114.519 216.800,111.272 212.092,110.796 211.798 C 110.572 211.659,111.215 212.728,112.225 214.173 M164.704 214.200 C 165.160 214.860,166.307 216.120,167.253 217.000 L 168.973 218.600 167.023 216.400 C 164.328 213.360,163.735 212.797,164.704 214.200 M116.344 219.900 C 116.782 220.505,117.709 221.630,118.403 222.400 C 119.097 223.170,118.814 222.675,117.773 221.300 C 115.927 218.859,114.759 217.716,116.344 219.900 M169.200 219.088 C 169.200 219.278,170.054 220.236,171.098 221.217 C 172.911 222.920,172.934 222.929,171.598 221.424 C 169.270 218.799,169.200 218.731,169.200 219.088 M120.575 225.332 C 121.191 226.139,121.776 226.800,121.875 226.800 C 122.153 226.800,120.421 224.460,119.909 224.144 C 119.659 223.989,119.959 224.524,120.575 225.332 M176.878 226.749 C 179.735 229.374,181.461 230.800,181.779 230.800 C 181.923 230.800,180.997 229.924,179.721 228.853 C 178.444 227.781,176.964 226.431,176.430 225.853 C 175.897 225.274,175.302 224.800,175.108 224.800 C 174.914 224.800,175.711 225.677,176.878 226.749 M123.540 229.116 C 124.033 229.809,124.644 230.504,124.897 230.660 C 125.150 230.817,124.954 230.377,124.460 229.684 C 123.967 228.991,123.356 228.296,123.103 228.140 C 122.850 227.983,123.046 228.423,123.540 229.116 M262.905 228.287 C 263.514 228.379,264.414 228.377,264.905 228.282 C 265.397 228.187,264.900 228.111,263.800 228.114 C 262.700 228.117,262.297 228.195,262.905 228.287 M259.200 229.186 C 258.430 229.599,256.900 230.896,255.800 232.068 L 253.800 234.200 256.000 232.142 C 257.210 231.010,258.920 229.713,259.800 229.260 C 260.680 228.806,261.220 228.435,261.000 228.435 C 260.780 228.435,259.970 228.773,259.200 229.186 M266.800 228.782 C 267.130 229.005,267.745 229.191,268.167 229.194 C 269.190 229.202,268.871 228.973,267.400 228.644 C 266.524 228.448,266.362 228.485,266.800 228.782 M184.000 232.780 C 185.703 234.314,189.854 237.407,189.000 236.505 C 188.780 236.273,187.160 234.975,185.400 233.620 C 183.640 232.266,183.010 231.888,184.000 232.780 M126.000 232.125 C 126.000 232.194,126.573 232.779,127.274 233.425 L 128.549 234.600 127.574 233.322 C 126.747 232.237,126.000 231.669,126.000 232.125 M276.800 232.800 C 277.570 233.222,278.380 233.566,278.600 233.566 C 278.820 233.566,278.370 233.222,277.600 232.800 C 276.830 232.378,276.020 232.034,275.800 232.034 C 275.580 232.034,276.030 232.378,276.800 232.800 M129.848 236.562 C 130.702 237.532,131.558 238.342,131.752 238.362 C 131.946 238.383,131.406 237.607,130.552 236.638 C 129.698 235.668,128.842 234.858,128.648 234.838 C 128.454 234.817,128.994 235.593,129.848 236.562 M250.949 238.300 C 249.909 239.785,248.775 241.357,248.429 241.793 C 247.902 242.458,247.898 242.511,248.407 242.122 C 249.091 241.598,253.353 235.600,253.041 235.600 C 252.931 235.600,251.989 236.815,250.949 238.300 M285.200 236.800 C 285.970 237.222,286.780 237.566,287.000 237.566 C 287.220 237.566,286.770 237.222,286.000 236.800 C 285.230 236.378,284.420 236.034,284.200 236.034 C 283.980 236.034,284.430 236.378,285.200 236.800 M189.605 237.073 C 189.608 237.253,190.257 237.819,191.048 238.332 C 191.840 238.845,192.372 239.078,192.231 238.851 C 191.841 238.218,189.599 236.701,189.605 237.073 M133.525 240.700 C 134.405 241.745,135.718 243.140,136.442 243.800 C 137.166 244.460,136.531 243.605,135.031 241.900 C 132.057 238.521,130.944 237.634,133.525 240.700 M246.757 244.100 C 246.264 244.815,245.068 246.345,244.099 247.500 C 243.131 248.655,242.487 249.592,242.669 249.583 C 243.168 249.557,248.321 242.800,247.842 242.800 C 247.739 242.800,247.251 243.385,246.757 244.100 M199.574 243.924 C 200.109 244.359,201.099 245.019,201.774 245.391 L 203.000 246.067 202.026 245.276 C 201.491 244.841,200.501 244.181,199.826 243.809 L 198.600 243.133 199.574 243.924 M203.600 246.420 C 204.987 247.361,205.778 247.635,204.800 246.836 C 204.250 246.386,203.620 246.017,203.400 246.015 C 203.180 246.013,203.270 246.196,203.600 246.420 M139.600 247.091 C 139.600 247.271,141.174 248.944,143.099 250.809 C 146.624 254.225,146.440 254.006,140.500 247.717 C 140.005 247.192,139.600 246.911,139.600 247.091 M206.800 248.158 C 206.800 248.270,207.475 248.671,208.300 249.048 C 209.125 249.426,209.935 249.805,210.100 249.891 C 210.265 249.977,210.400 249.955,210.400 249.842 C 210.400 249.730,209.725 249.329,208.900 248.952 C 208.075 248.574,207.265 248.195,207.100 248.109 C 206.935 248.023,206.800 248.045,206.800 248.158 M308.800 248.158 C 308.800 248.270,309.475 248.671,310.300 249.048 C 311.125 249.426,311.935 249.805,312.100 249.891 C 312.265 249.977,312.400 249.955,312.400 249.842 C 312.400 249.730,311.725 249.329,310.900 248.952 C 310.075 248.574,309.265 248.195,309.100 248.109 C 308.935 248.023,308.800 248.045,308.800 248.158 M238.800 253.879 C 237.810 254.909,237.506 255.368,238.124 254.899 C 239.129 254.138,241.056 251.995,240.729 252.003 C 240.658 252.005,239.790 252.849,238.800 253.879 M146.800 254.111 C 146.800 254.371,151.651 259.084,154.700 261.786 C 155.635 262.615,156.400 263.177,156.400 263.034 C 156.400 262.892,155.725 262.200,154.900 261.496 C 154.075 260.793,151.915 258.786,150.100 257.038 C 148.285 255.289,146.800 253.972,146.800 254.111 M319.250 254.000 C 319.242 254.110,319.485 255.100,319.791 256.200 C 320.127 257.411,320.350 257.806,320.355 257.200 C 320.362 256.389,319.301 253.315,319.250 254.000 M229.507 257.490 C 230.226 257.579,231.306 257.577,231.907 257.486 C 232.508 257.395,231.920 257.322,230.600 257.324 C 229.280 257.326,228.788 257.401,229.507 257.490 M320.079 263.050 C 320.036 264.618,319.911 266.507,319.801 267.250 L 319.603 268.600 320.018 267.278 C 320.247 266.551,320.372 264.661,320.297 263.078 L 320.159 260.200 320.079 263.050 M158.200 264.763 C 159.026 265.717,161.200 267.392,161.200 267.075 C 161.200 266.977,160.345 266.209,159.300 265.368 C 158.255 264.528,157.760 264.255,158.200 264.763 M161.600 267.326 C 161.600 267.436,162.500 268.279,163.600 269.200 C 164.700 270.121,165.600 270.784,165.600 270.674 C 165.600 270.564,164.700 269.721,163.600 268.800 C 162.500 267.879,161.600 267.216,161.600 267.326 M319.301 270.200 C 319.305 271.080,319.387 271.393,319.483 270.895 C 319.579 270.398,319.575 269.678,319.475 269.295 C 319.375 268.913,319.296 269.320,319.301 270.200 M168.000 272.559 C 168.000 272.650,168.900 273.372,170.000 274.162 C 171.100 274.952,171.997 275.464,171.993 275.299 C 171.985 274.994,168.000 272.259,168.000 272.559 M173.400 276.565 C 174.060 277.132,174.765 277.597,174.967 277.598 C 175.401 277.600,175.396 277.596,173.600 276.437 L 172.200 275.534 173.400 276.565 M316.846 279.667 C 316.821 280.034,316.696 280.664,316.570 281.067 C 316.352 281.762,316.363 281.763,316.797 281.087 C 317.048 280.696,317.173 280.066,317.073 279.687 C 316.911 279.068,316.888 279.066,316.846 279.667 M178.800 280.400 C 179.350 280.830,179.980 281.182,180.200 281.182 C 180.420 281.182,180.150 280.830,179.600 280.400 C 179.050 279.970,178.420 279.618,178.200 279.618 C 177.980 279.618,178.250 279.970,178.800 280.400 M184.400 283.764 C 184.400 283.997,189.119 286.800,189.510 286.800 C 189.851 286.800,188.718 286.044,186.300 284.656 C 185.255 284.057,184.400 283.655,184.400 283.764 M192.400 288.422 C 193.433 289.126,196.000 290.425,196.000 290.242 C 196.000 290.033,192.405 287.997,192.050 288.006 C 191.912 288.009,192.070 288.196,192.400 288.422 M308.386 293.900 L 306.200 296.200 308.500 294.014 C 310.637 291.982,310.983 291.600,310.686 291.600 C 310.624 291.600,309.589 292.635,308.386 293.900 M302.385 298.832 L 301.000 300.063 302.288 299.213 C 303.430 298.459,304.293 297.600,303.908 297.600 C 303.832 297.600,303.147 298.154,302.385 298.832 M298.100 301.646 C 296.737 302.519,296.295 303.106,297.500 302.443 C 298.418 301.939,299.856 300.827,299.600 300.819 C 299.490 300.816,298.815 301.188,298.100 301.646 M227.546 303.416 C 228.286 303.737,229.096 303.993,229.346 303.984 C 229.596 303.976,229.194 303.706,228.454 303.384 C 227.714 303.063,226.904 302.807,226.654 302.816 C 226.404 302.824,226.806 303.094,227.546 303.416 M292.400 304.800 C 290.750 305.658,289.539 306.369,289.710 306.380 C 290.135 306.407,295.600 303.638,295.600 303.395 C 295.600 303.125,295.732 303.067,292.400 304.800 M230.000 304.146 C 230.000 304.333,233.789 305.608,234.275 305.584 C 234.746 305.562,232.392 304.578,231.100 304.257 C 230.495 304.107,230.000 304.057,230.000 304.146 M235.633 306.144 C 235.725 306.223,236.340 306.408,237.000 306.556 C 237.876 306.752,238.038 306.715,237.600 306.418 C 237.060 306.053,235.232 305.798,235.633 306.144 M238.433 306.944 C 238.525 307.023,239.140 307.208,239.800 307.356 C 240.676 307.552,240.838 307.515,240.400 307.218 C 239.860 306.853,238.032 306.598,238.433 306.944 M241.233 307.744 C 241.325 307.823,241.940 308.008,242.600 308.156 C 243.476 308.352,243.638 308.315,243.200 308.018 C 242.660 307.653,240.832 307.398,241.233 307.744 M248.000 309.600 C 249.542 310.094,250.364 310.094,249.600 309.600 C 249.270 309.387,248.550 309.227,248.000 309.246 L 247.000 309.280 248.000 309.600 M252.000 310.400 C 253.368 310.838,254.419 310.838,253.400 310.400 C 252.960 310.211,252.240 310.062,251.800 310.068 C 251.157 310.077,251.196 310.143,252.000 310.400 M276.800 310.418 C 276.362 310.715,276.524 310.752,277.400 310.556 C 278.871 310.227,279.190 309.998,278.167 310.006 C 277.745 310.009,277.130 310.195,276.800 310.418 M255.233 310.950 C 255.325 311.032,256.480 311.204,257.800 311.331 C 259.355 311.480,259.848 311.442,259.200 311.221 C 258.214 310.884,254.910 310.659,255.233 310.950 M272.400 311.200 C 271.056 311.631,272.508 311.631,274.200 311.200 C 275.278 310.926,275.298 310.894,274.400 310.887 C 273.850 310.883,272.950 311.024,272.400 311.200 M263.700 311.894 C 264.745 311.976,266.455 311.976,267.500 311.894 C 268.545 311.812,267.690 311.744,265.600 311.744 C 263.510 311.744,262.655 311.812,263.700 311.894 " stroke="none" fill="#acd8ac" fill-rule="evenodd"></path></g></svg>